<svg xmlns="http://www.w3.org/2000/svg" xmlns:xlink="http://www.w3.org/1999/xlink" width="64" height="64" viewBox="0 0 64 64">
  <path fill="#000" d="M33.94,7.69c9.06,0 16.42,6.94 17.27,15.78c6.71,1.28 11.79,7.16 11.79,14.25c0,8.02 -6.51,14.53 -14.53,14.53h-34.88c-6.95,0 -12.59,-5.64 -12.59,-12.6c0,-4.64 2.54,-8.65 6.29,-10.83c-0.29,-0.86 -0.48,-1.77 -0.48,-2.72c0,-4.82 3.91,-8.72 8.72,-8.72c0.89,0.01 1.78,0.16 2.62,0.44c2.77,-5.97 8.77,-10.13 15.79,-10.13zM15.51,31.32c-2.38,0 -4.27,1.62 -4.27,3.91c0,2.3 1.89,3.89 4.27,3.89c2.39,0 4.28,-1.59 4.28,-3.89c0,-2.29 -1.89,-3.91 -4.28,-3.91zM25.12,33.72c0.72,0.33 1.17,0.03 1.45,-0.52c0.26,-0.53 0.23,-1.01 -0.48,-1.42c-0.61,-0.34 -1.5,-0.46 -2.37,-0.46c-1.69,0 -3.25,0.6 -3.25,2.47c0,1.84 1.68,2.23 2.73,2.51c0.67,0.18 1.05,0.32 1.05,0.5c0,0.19 -0.17,0.23 -0.51,0.23c-0.65,0 -1.5,-0.28 -1.92,-0.56c-0.56,-0.36 -1.05,-0.22 -1.4,0.3c-0.31,0.48 -0.39,1.13 0.2,1.55c0.36,0.28 1.54,0.8 3.18,0.8c1.96,0 3.33,-0.78 3.33,-2.44c0,-1.77 -1.58,-2.27 -2.94,-2.69c-0.59,-0.18 -0.87,-0.29 -0.87,-0.44c0,-0.09 0.06,-0.19 0.42,-0.19c0.38,0 1.03,0.19 1.38,0.36zM31.46,39.12c1.07,0 1.68,-0.43 1.85,-0.75h0.15c0.25,0.39 0.67,0.63 1.2,0.63c0.84,0 1.44,-0.63 1.44,-1.5v-2.45c0,-2.1 -1.82,-3.73 -4.05,-3.73c-2.37,0 -4.44,1.39 -4.44,3.91c0,2.45 1.93,3.89 3.85,3.89zM50,31.32c-2.38,0 -4.27,1.62 -4.27,3.91c0,2.3 1.89,3.89 4.27,3.89c2.39,0 4.28,-1.59 4.28,-3.89c0,-2.29 -1.89,-3.91 -4.28,-3.91zM42.19,35.31c0,0.56 -0.39,0.92 -1.2,0.93c-0.86,0.01 -1.2,-0.33 -1.2,-1.31v-1.99c0,-0.87 -0.62,-1.5 -1.46,-1.5c-0.84,0 -1.45,0.63 -1.45,1.5v2.35c0,2.33 1.77,3.26 3.36,3.26c1.11,0 1.65,-0.48 1.89,-0.8h0.09v0.02c0,0.84 -0.54,1.5 -1.98,1.5c-0.23,0 -0.63,-0.01 -1.05,-0.11c-0.74,-0.16 -1.26,-0.02 -1.49,0.69c-0.21,0.67 0.02,1.1 0.71,1.35c0.45,0.17 1.36,0.32 2.2,0.32c2.6,0 4.49,-1.38 4.49,-3.77v-4.81c0,-0.87 -0.62,-1.5 -1.46,-1.5c-0.84,0 -1.45,0.63 -1.45,1.5zM16.85,35.23c0,0.73 -0.46,1.37 -1.34,1.37c-0.86,0 -1.33,-0.64 -1.33,-1.37c0,-0.71 0.47,-1.39 1.33,-1.39c0.88,0 1.34,0.68 1.34,1.39zM33.22,35.27c0,0.96 -0.71,1.33 -1.34,1.33c-0.81,0 -1.33,-0.56 -1.33,-1.33c0,-0.77 0.49,-1.43 1.35,-1.43c0.75,0 1.32,0.52 1.32,1.29zM51.34,35.23c0,0.73 -0.47,1.37 -1.34,1.37c-0.87,0 -1.34,-0.64 -1.34,-1.37c0,-0.71 0.47,-1.39 1.34,-1.39c0.87,0 1.34,0.68 1.34,1.39z"></path>
</svg>