<svg xmlns="http://www.w3.org/2000/svg" xmlns:xlink="http://www.w3.org/1999/xlink" width="64" height="64" viewBox="0 0 64 64">
  <path fill="#000" d="M51.21,23.47c6.71,1.28 11.79,7.16 11.79,14.25c0,8.02 -6.51,14.53 -14.53,14.53v0h-34.88v0c-6.95,0 -12.59,-5.64 -12.59,-12.6c0,-4.64 2.54,-8.65 6.29,-10.83c-0.29,-0.86 -0.48,-1.77 -0.48,-2.72c0,-4.82 3.91,-8.72 8.72,-8.72c0.89,0.01 1.78,0.16 2.62,0.44c2.77,-5.97 8.77,-10.13 15.79,-10.13c9.06,0 16.42,6.94 17.27,15.78zM59.12,37.72c0,-5.11 -3.63,-9.49 -8.64,-10.45c-2.89,-0.66 -2.89,-0.66 -3.13,-3.43c-0.67,-7 -6.44,-12.28 -13.41,-12.28c-5.24,0 -10.05,3.1 -12.27,7.89c-1.05,2.29 -1.29,3.14 -3.52,2.25c-1.35,-0.54 -2.62,-0.45 -2.62,-0.45c-2.67,0 -4.84,2.18 -4.84,4.85c0.01,0.51 0.1,1.01 0.28,1.5c1.11,2.74 0.93,3.04 -1.73,4.56c-2.73,1.6 -4.36,4.39 -4.36,7.49c0,4.82 3.9,8.72 8.71,8.73h34.88v-0.01c5.87,0 10.65,-4.78 10.65,-10.65z"></path>
  <path fill="#000" d="M15.51,39.12c-2.38,0 -4.27,-1.59 -4.27,-3.89c0,-2.29 1.89,-3.91 4.27,-3.91c2.39,0 4.28,1.62 4.28,3.91c0,2.3 -1.89,3.89 -4.28,3.89zM16.85,35.23c0,-0.71 -0.46,-1.39 -1.34,-1.39c-0.86,0 -1.33,0.68 -1.33,1.39c0,0.73 0.47,1.37 1.33,1.37c0.88,0 1.34,-0.64 1.34,-1.37zM23.32,33.55c0,0.15 0.28,0.26 0.87,0.44c1.36,0.42 2.94,0.92 2.94,2.69c0,1.66 -1.37,2.44 -3.33,2.44c-1.64,0 -2.82,-0.52 -3.18,-0.8c-0.59,-0.42 -0.51,-1.07 -0.2,-1.55c0.35,-0.52 0.84,-0.66 1.4,-0.3c0.42,0.28 1.27,0.56 1.92,0.56c0.34,0 0.51,-0.04 0.51,-0.23c0,-0.18 -0.38,-0.32 -1.05,-0.5c-1.05,-0.28 -2.73,-0.67 -2.73,-2.51c0,-1.87 1.56,-2.47 3.25,-2.47c0.87,0 1.76,0.12 2.37,0.46c0.71,0.41 0.74,0.89 0.48,1.42c-0.28,0.55 -0.73,0.85 -1.45,0.52c-0.35,-0.17 -1,-0.36 -1.38,-0.36c-0.36,0 -0.42,0.1 -0.42,0.19zM32.05,31.32c2.23,0 4.05,1.63 4.05,3.73v2.45c0,0.87 -0.6,1.5 -1.44,1.5c-0.53,0 -0.95,-0.24 -1.2,-0.63h-0.15c-0.17,0.32 -0.78,0.75 -1.85,0.75c-1.92,0 -3.85,-1.44 -3.85,-3.89c0,-2.52 2.07,-3.91 4.44,-3.91zM33.22,35.27v-0.14c0,-0.77 -0.57,-1.29 -1.32,-1.29c-0.86,0 -1.35,0.66 -1.35,1.43c0,0.77 0.52,1.33 1.33,1.33c0.63,0 1.34,-0.37 1.34,-1.33zM43.64,31.44c0.84,0 1.46,0.63 1.46,1.5v4.81c0,2.39 -1.89,3.77 -4.49,3.77c-0.84,0 -1.75,-0.15 -2.2,-0.32c-0.69,-0.25 -0.92,-0.68 -0.71,-1.35c0.23,-0.71 0.75,-0.85 1.49,-0.69c0.42,0.1 0.82,0.11 1.05,0.11c1.44,0 1.98,-0.66 1.98,-1.5v-0.02h-0.09c-0.24,0.32 -0.78,0.8 -1.89,0.8c-1.59,0 -3.36,-0.93 -3.36,-3.26v-2.35c0,-0.87 0.61,-1.5 1.45,-1.5c0.84,0 1.46,0.63 1.46,1.5v1.99c0,0.98 0.34,1.32 1.2,1.31c0.81,-0.01 1.2,-0.37 1.2,-0.93v-2.37c0,-0.87 0.61,-1.5 1.45,-1.5zM50,39.12c-2.38,0 -4.27,-1.59 -4.27,-3.89c0,-2.29 1.89,-3.91 4.27,-3.91c2.39,0 4.28,1.62 4.28,3.91c0,2.3 -1.89,3.89 -4.28,3.89zM51.34,35.23c0,-0.71 -0.47,-1.39 -1.34,-1.39c-0.87,0 -1.34,0.68 -1.34,1.39c0,0.73 0.47,1.37 1.34,1.37c0.87,0 1.34,-0.64 1.34,-1.37z"></path>
</svg>